<svg id="Capa_1" data-name="Capa 1" xmlns="http://www.w3.org/2000/svg" viewBox="0 0 803.78 247.21"><defs><style>.cls-1{fill:#0578ac;}.cls-2{fill:none;stroke:#fff;stroke-miterlimit:10;stroke-width:6px;}.cls-3{font-size:75px;fill:#060606;font-family:CenturyGothic-Italic, Century Gothic;font-style:italic;}</style></defs><title>logoHorizontal-6pt</title><circle class="cls-1" cx="123.6" cy="123.6" r="123.6"/><polygon class="cls-2" points="181.88 66.36 212.07 77.29 212.07 181.37 125.16 194.9 35.14 183.45 35.14 107.47 56.99 99.15 93.42 113.72 93.94 181.88 77.81 178.24 75.73 135.05 123.6 112.16 166.79 130.37 168.36 163.67 138.17 167.84 136.61 84.06 181.88 66.36"/><line class="cls-2" x1="123.6" y1="112.16" x2="123.6" y2="194.89"/><line class="cls-2" x1="181.89" y1="66.36" x2="181.89" y2="186.05"/><line class="cls-2" x1="57.52" y1="90.82" x2="57.52" y2="186.05"/><polyline class="cls-2" points="41.38 105.39 41.38 96.02 57.52 90.82 88.74 101.23"/><polyline class="cls-2" points="144.94 80.93 144.94 66.36 155.35 62.72 172.52 52.31 200.1 63.76"/><line class="cls-2" x1="172.52" y1="52.31" x2="172.52" y2="70"/><text class="cls-3" transform="translate(267.39 159.7)">My House-App</text></svg>